<?xml version="1.0" encoding="iso-8859-1"?>
<!-- Generator: Adobe Illustrator 19.0.0, SVG Export Plug-In . SVG Version: 6.00 Build 0)  -->
<svg version="1.1" id="Layer_1" xmlns="http://www.w3.org/2000/svg" xmlns:xlink="http://www.w3.org/1999/xlink" x="0px" y="0px"
	 viewBox="0 0 512 512" style="enable-background:new 0 0 512 512;" xml:space="preserve">
<path style="fill:#D6D2C4;" d="M395.16,253.844c9.611-20.093,14.996-42.577,14.996-66.296c0-85.002-69.155-154.157-154.157-154.157
	s-154.157,69.154-154.157,154.157S170.998,341.704,256,341.704c51.104,0,96.479-24.996,124.544-63.403"/>
<path style="fill:#E5E2DC;" d="M368.47,292.852c4.309-4.599,8.348-9.452,12.074-14.551l14.618-24.457
	c9.611-20.093,14.996-42.577,14.996-66.296c0-75.076-53.949-137.777-125.113-151.401c-51.608,19.002-88.515,68.664-88.515,126.785
	c0,74.466,60.583,135.049,135.049,135.049C344.365,297.982,356.739,296.188,368.47,292.852z"/>
<path style="fill:#36A1CB;" d="M139.418,67.525l25.326,28.453c0,0-40.283,51.128-41.953,87.21H91.928
	C91.928,183.187,98.792,106.802,139.418,67.525z"/>
<path style="fill:#4BAF78;" d="M253.637,23.745l-1.111,31.254c0,0-63.783,12.984-88.376,39.44l-24.733-16.206
	C139.418,78.232,197.25,27.463,253.637,23.745z"/>
<path style="fill:#FFB92E;" d="M367.963,66.783L348.02,90.778c0,0-54.209-36.034-90.308-34.79l-4.075-32.242
	C253.637,23.745,325.54,29.452,367.963,66.783z"/>
<path style="fill:#EA6428;" d="M413.969,186.494l-28.062-4.323c0,0-10.952-64.163-36.615-89.582l18.671-19.869
	C367.963,72.718,412.041,130.018,413.969,186.494z"/>
<path style="fill:#E35F46;" d="M314.475,129.796c-1.01-0.825-2.46-0.836-3.485-0.027l-69.439,54.874
	c-2.349,1.86-4.269,4.122-5.751,6.814l-0.337,0.664c-3.515,6.974-3.168,15.117,0.943,21.797c0.012,0.021,0.061,0.101,0.073,0.122
	c0.079,0.128,0.165,0.255,0.249,0.381l0.116,0.174c0.102,0.154,0.205,0.308,0.266,0.393c0.056,0.08,0.114,0.16,0.229,0.319
	c0.165,0.226,0.333,0.452,0.47,0.623l0.169,0.215c0.196,0.244,0.394,0.483,0.557,0.666l0.106,0.122
	c0.006,0.007,0.072,0.083,0.079,0.09c0.198,0.22,0.395,0.437,0.589,0.638l0.194,0.196c0.187,0.191,0.377,0.377,0.62,0.608
	l0.252,0.231c0.164,0.149,0.328,0.296,0.496,0.442c0.012,0.01,0.08,0.067,0.091,0.076l0.752,0.612
	c0.169,0.129,0.343,0.258,0.534,0.398l0.298,0.214c0.217,0.154,0.441,0.304,0.67,0.452c0.013,0.009,0.096,0.063,0.11,0.071
	c0.012,0.008,0.115,0.075,0.127,0.082c0.25,0.158,0.506,0.312,0.83,0.5l0.107,0.06c0.272,0.157,0.552,0.304,0.787,0.424
	c0.093,0.05,0.184,0.098,0.239,0.125c0.244,0.121,0.491,0.236,0.74,0.351c0.016,0.007,0.108,0.049,0.122,0.056l0.178,0.081
	c0.174,0.077,0.35,0.147,0.559,0.23l0.141,0.058c0.135,0.056,0.268,0.11,0.395,0.159c0.058,0.022,0.116,0.042,0.178,0.062
	c2.47,0.902,5.059,1.359,7.691,1.359l0,0c5.07,0,9.853-1.664,13.831-4.809l0.668-0.529c2.262-1.93,4.093-4.264,5.442-6.939
	l39.839-79.029C315.788,132.039,315.487,130.622,314.475,129.796z M239.52,213.576L239.52,213.576L239.52,213.576L239.52,213.576z
	 M240.119,214.367L240.119,214.367h-0.001H240.119z M246.613,219.641L246.613,219.641L246.613,219.641L246.613,219.641z"/>
<path style="fill:#7C7A75;" d="M256,361.51c-6.387,0-12.698-0.451-18.922-1.323v104.822h37.843V360.186
	C268.698,361.058,262.384,361.51,256,361.51z"/>
<path style="fill:#36A1CB;" d="M346.12,483.095l-13.081-30.798c-1.047-2.466-3.467-4.067-6.147-4.067H185.109
	c-2.678,0-5.099,1.601-6.145,4.067l-13.082,30.798c-0.876,2.064-0.66,4.428,0.578,6.296c1.237,1.869,3.328,2.993,5.57,2.993h167.945
	c2.241,0,4.333-1.124,5.569-2.993C346.779,487.523,346.996,485.159,346.12,483.095z"/>
<path style="fill:#2393B5;" d="M193.729,489.392c-1.237-1.87-1.454-4.234-0.578-6.296l13.082-30.798
	c1.046-2.466,3.467-4.067,6.145-4.067h-27.27c-2.678,0-5.099,1.601-6.145,4.067l-13.082,30.798c-0.876,2.064-0.66,4.428,0.578,6.296
	c1.237,1.869,3.328,2.993,5.57,2.993h27.27C197.057,492.385,194.965,491.261,193.729,489.392z"/>
<path style="fill:#7C7A75;" d="M409.105,178.146h-16.203c-1.921-30.671-13.953-59.451-34.373-82.375l11.635-11.636
	c3.26-3.26,3.26-8.546,0-11.805c-3.26-3.26-8.546-3.26-11.805,0l-11.657,11.657c-23.018-20.348-51.792-32.239-82.354-34.077V33.391
	c0-4.61-3.736-8.348-8.348-8.348c-4.61,0-8.348,3.738-8.348,8.348V49.91c-30.553,1.838-59.335,13.732-82.352,34.079l-11.658-11.658
	c-3.26-3.26-8.546-3.26-11.805,0c-3.261,3.26-3.261,8.545,0,11.805l11.635,11.636c-20.411,22.915-32.452,51.701-34.374,82.374h-16.2
	c-4.61,0-8.348,3.738-8.348,8.348s3.738,8.348,8.348,8.348h30.171c4.611,0,8.348-3.738,8.348-8.348c0-3.654-2.35-6.751-5.62-7.883
	c1.834-27.5,12.685-52.293,29.624-71.543c1.15,0.561,2.4,0.848,3.652,0.848c2.136,0,4.273-0.815,5.902-2.445
	c2.579-2.578,3.11-6.42,1.609-9.529c19.358-16.897,44.225-27.63,71.644-29.345c1.214,3.109,4.232,5.314,7.769,5.314
	c3.535,0,6.549-2.2,7.768-5.303c27.094,1.775,51.967,12.755,71.417,29.834c-1.214,3.012-0.602,6.587,1.839,9.028
	c1.631,1.629,3.767,2.445,5.902,2.445c1.076,0,2.152-0.208,3.162-0.621c17.15,19.347,28.249,44.154,30.112,71.318
	c-3.267,1.133-5.615,4.228-5.615,7.88c0,4.61,3.738,8.348,8.348,8.348h30.171c4.611,0,8.348-3.738,8.348-8.348
	C417.452,181.884,413.715,178.146,409.105,178.146z"/>
<g>
	<path style="fill:#F5F5F5;" d="M294.055,268.639h-75.687c-4.61,0-8.348-3.738-8.348-8.348s3.738-8.348,8.348-8.348h75.687
		c4.61,0,8.348,3.738,8.348,8.348C302.403,264.902,298.665,268.639,294.055,268.639z"/>
	<path style="fill:#F5F5F5;" d="M274.922,297.789h-37.843c-4.61,0-8.348-3.736-8.348-8.348c0-4.611,3.738-8.348,8.348-8.348h37.843
		c4.611,0,8.348,3.736,8.348,8.348C283.27,294.052,279.533,297.789,274.922,297.789z"/>
</g>
<g>
	<path style="fill:#CCC3A8;" d="M256,375.096c-103.415,0-187.548-84.133-187.548-187.548C68.452,84.134,152.585,0,256,0
		c103.413,0,187.548,84.134,187.548,187.548C443.548,290.963,359.413,375.096,256,375.096z M395.16,253.844
		c9.611-20.093,14.996-42.577,14.996-66.296c0-85.002-69.155-154.157-154.157-154.157s-154.157,69.154-154.157,154.157
		S170.998,341.704,256,341.704c51.104,0,96.479-24.996,124.544-63.403"/>
	<path style="fill:#CCC3A8;" d="M498.05,480.671h-83.848H97.798H13.95c-7.704,0-13.95,6.246-13.95,13.95v3.428
		C0,505.754,6.245,512,13.95,512h83.848h299.276h28.198h72.779c7.704,0,13.95-6.245,13.95-13.95v-3.428
		C512,486.918,505.755,480.671,498.05,480.671z"/>
</g>
<path style="fill:#C9B585;" d="M23.003,498.049v-3.427c0-7.706,6.245-13.951,13.951-13.951h-0.742H13.951
	C6.245,480.67,0,486.916,0,494.621v3.427C0,505.754,6.245,512,13.951,512h22.261h0.742C29.249,512,23.003,505.754,23.003,498.049z"
	/>
<path style="fill:#CC3C29;" d="M257.159,202.829l0.337-0.664c0.297-0.539,0.619-1.054,0.952-1.557l-0.007,0.001
	c0.004-0.006,0.022-0.029,0.033-0.045c0.604-0.908,1.279-1.749,1.998-2.546c10.056-12.755,54.003-68.22,54.003-68.22
	c-1.01-0.825-2.46-0.836-3.485-0.027l-69.439,54.874c-2.349,1.86-4.269,4.122-5.751,6.814l-0.337,0.664
	c-3.515,6.974-3.168,15.117,0.943,21.797c0.012,0.021,0.061,0.101,0.073,0.122c0.079,0.128,0.165,0.255,0.249,0.381l0.116,0.174
	c0.102,0.154,0.205,0.308,0.266,0.393c0.056,0.08,0.114,0.16,0.229,0.319c0.165,0.226,0.333,0.452,0.47,0.623l0.169,0.215
	c0.196,0.244,0.394,0.483,0.557,0.666l0.106,0.122c0.006,0.007,0.072,0.083,0.079,0.09c0.198,0.22,0.395,0.437,0.589,0.638
	l0.194,0.196c0.187,0.191,0.377,0.377,0.62,0.608l0.252,0.231c0.164,0.149,0.328,0.296,0.496,0.442
	c0.012,0.01,0.08,0.067,0.091,0.076l0.752,0.612c0.169,0.129,0.343,0.258,0.534,0.398l0.298,0.214
	c0.217,0.154,0.441,0.304,0.67,0.452c0.013,0.009,0.096,0.063,0.11,0.071c0.012,0.008,0.115,0.075,0.127,0.082
	c0.25,0.158,0.506,0.312,0.83,0.5l0.107,0.06c0.272,0.157,0.552,0.304,0.787,0.424c0.093,0.05,0.184,0.098,0.239,0.125
	c0.244,0.121,0.491,0.236,0.74,0.351c0.016,0.007,0.108,0.049,0.122,0.056l0.178,0.081c0.174,0.077,0.349,0.147,0.559,0.23
	l0.141,0.058c0.135,0.056,0.268,0.11,0.395,0.159c0.058,0.022,0.116,0.042,0.178,0.062c2.47,0.902,5.059,1.359,7.691,1.359l0,0
	c0.853,0,1.692-0.065,2.524-0.157C253.99,217.726,253.69,209.71,257.159,202.829z"/>
<g>
</g>
<g>
</g>
<g>
</g>
<g>
</g>
<g>
</g>
<g>
</g>
<g>
</g>
<g>
</g>
<g>
</g>
<g>
</g>
<g>
</g>
<g>
</g>
<g>
</g>
<g>
</g>
<g>
</g>
</svg>
