<svg width="70" height="60" viewBox="0 0 70 60" fill="none" xmlns="http://www.w3.org/2000/svg">
    <path d="M33.0617 59.0589C26.4623 55.7673 15.2557 45.3282 8.1522 35.8554L7.76609 35.3405H12.6752C16.0036 35.3405 17.7555 35.2895 18.1161 35.1811C19.0713 34.8949 19.624 34.2632 20.7021 32.2257C22.6783 28.4907 22.9509 28.0033 22.99 28.1353C23.0118 28.2093 23.4361 32.4362 23.9328 37.5292C24.806 46.483 24.8481 46.8115 25.2043 47.466C25.8251 48.6067 26.6787 49.0961 28.0575 49.1019C29.0736 49.1019 29.8202 48.7604 30.4737 47.9828C30.7273 47.6812 32.2941 44.7772 33.9555 41.5296L36.9762 35.6249L47.3428 35.5859C57.6652 35.5469 57.7117 35.5449 58.2586 35.2503C59.4388 34.6134 60.0345 33.6301 60.0339 32.3199C60.0332 30.9478 59.3599 29.8991 58.1213 29.3408C57.6088 29.1098 56.8197 29.0907 46.3191 29.055C38.6213 29.029 34.8395 29.065 34.3488 29.1658C33.0767 29.4298 32.5757 29.9526 31.3382 32.3074L30.2482 34.3813L30.1439 33.8655C30.0865 33.5818 29.6673 29.488 29.2121 24.7681C28.757 20.0482 28.3265 15.9689 28.2554 15.7029C27.8905 14.3367 26.6267 13.437 25.0885 13.4485C24.0403 13.4585 23.1408 13.888 22.6024 14.6416C22.4275 14.8863 20.673 18.1762 18.7035 21.9526L15.1225 28.8186L9.35466 28.8546L3.58683 28.8906L2.75596 27.2072C0.692782 23.0268 -0.138504 19.5975 0.0179863 15.9123C0.142236 12.9862 0.7119 10.8998 2.06126 8.4291C3.16938 6.4001 5.12643 4.07317 6.75401 2.84957C8.53734 1.50887 10.9062 0.603491 13.4002 0.309291C15.5075 0.0607913 18.0067 0.39829 20.7741 1.30569C21.9894 1.70409 24.9891 3.21298 26.4037 4.13748C28.8538 5.73868 32.0888 8.60083 34.2444 11.0744L35.0539 12.0034L35.994 10.7637C37.8788 8.278 40.7818 5.6562 43.5462 3.9429C48.7396 0.724197 54.604 -0.336199 59.2165 1.1094C62.9661 2.2846 65.9909 5.10381 68.1975 9.48001C70.3958 13.8396 70.5915 19.3376 68.7365 24.6204C67.67 27.6576 66.3384 30.2798 64.2689 33.4183C61.7105 37.2983 59.3935 40.0654 55.1803 44.2725C49.8632 49.5818 44.1705 54.1763 38.6925 57.5793C37.0868 58.5769 34.85 59.783 34.6107 59.7803C34.5524 59.7803 33.8554 59.4553 33.0617 59.0595V59.0589Z" fill="#F20000"/>
</svg>
