<svg xmlns="http://www.w3.org/2000/svg" xmlns:xlink="http://www.w3.org/1999/xlink" width="378.463" height="107.642" viewBox="0 0 378.463 107.642">
  <defs>
    <linearGradient id="linear-gradient" x1="0.132" y1="0.009" x2="0.95" y2="1.1" gradientUnits="objectBoundingBox">
      <stop offset="0" stop-color="#21dbaa"/>
      <stop offset="0.072" stop-color="#17d0bc"/>
      <stop offset="0.227" stop-color="#06bbe1"/>
      <stop offset="0.309" stop-color="#00b4ef"/>
      <stop offset="0.387" stop-color="#01a7ec"/>
      <stop offset="0.529" stop-color="#0487e4"/>
      <stop offset="0.646" stop-color="#0768dd"/>
      <stop offset="1" stop-color="#5f1ae5"/>
    </linearGradient>
  </defs>
  <g id="RGB_qualtrics_XM" data-name="RGB qualtrics XM" transform="translate(-158.666 -360)">
    <g id="Group_181" data-name="Group 181" transform="translate(158.666 360)">
      <g id="Group_180" data-name="Group 180">
        <g id="Group_179" data-name="Group 179">
          <path id="Path_604" data-name="Path 604" d="M253.093,426.175c-2.319,0-2.774-1.7-2.774-4.649V392.048c0-10.04-5.654-16.033-15.125-16.033-11.313,0-16.455,8.719-16.534,17.363l0,.355h7.523l0-.358a11,11,0,0,1,2.891-7.862,7.856,7.856,0,0,1,5.728-2.394c4.518,0,7.215,3.544,7.215,9.479v2.749l-9.085,4.312c-10.3,4.816-17.049,8.734-17.049,18.9,0,8.922,5.614,14.916,13.972,14.916,4.738,0,9.259-2.344,12.8-6.615a8.542,8.542,0,0,0,8.691,6.615,12.51,12.51,0,0,0,4.7-.972l.22-.089v-7.257l-.52.283A4.8,4.8,0,0,1,253.093,426.175Zm-11.084-23.469V419.85C239.961,423.173,236,426.5,231.7,426.5c-4.618,0-7.487-3.019-7.487-7.879,0-6.777,5.923-10.386,11.087-12.774Z" transform="translate(-127.902 -351.388)" fill="#000406"/>
          <path id="Path_605" data-name="Path 605" d="M273.149,365.4h-8.311l-.291,17.413h-7.229v7.52h7.52v36.146c0,8.113,3.789,12.582,10.67,12.582a16.392,16.392,0,0,0,8.145-2.319l.18-.1v-7.5l-.572.469a9.223,9.223,0,0,1-5.707,2.26c-3.641,0-4.406-3.032-4.406-5.577v-35.96H285.02v-7.52H273.149Z" transform="translate(-105.617 -357.094)" fill="#000406"/>
          <path id="Path_606" data-name="Path 606" d="M213.4,418.916c-3.134,4.546-6.735,7.047-10.151,7.047-4.478,0-6.074-4.393-6.074-8.507V376.728h-8.31v40.984c0,9.559,4.349,15.041,11.933,15.041a15.928,15.928,0,0,0,12.808-6.569l.14,5.553h7.965V376.728H213.4Z" transform="translate(-142.428 -351.005)" fill="#000406"/>
          <path id="Path_607" data-name="Path 607" d="M187.068,382.1c-2.076-3.852-5.906-6.031-10.713-6.031-4.624,0-8.876,2.288-11.974,6.443-3.792,5.082-5.714,12.554-5.714,22.21,0,21.124,8.531,28.651,16.514,28.651a13.391,13.391,0,0,0,10.926-5.142V459h8.31V377.085H187.3Zm-.963,7.7v30.194c-2.29,4.141-5.07,6.071-8.742,6.071-6.8,0-10.251-7.183-10.251-21.347,0-13.617,3.878-21.425,10.643-21.425C181.492,383.288,184.765,385.84,186.105,389.8Z" transform="translate(-158.666 -351.361)" fill="#000406"/>
          <rect id="Rectangle_637" data-name="Rectangle 637" width="8.311" height="81.127" transform="translate(135.081)" fill="#000406"/>
          <rect id="Rectangle_638" data-name="Rectangle 638" width="8.311" height="55.008" transform="translate(218.582 25.723)" fill="#000406"/>
          <rect id="Rectangle_639" data-name="Rectangle 639" width="8.311" height="9.498" transform="translate(218.582 8.311)" fill="#000406"/>
          <path id="Path_608" data-name="Path 608" d="M288.847,383.662l-.415-6.519H280.48v55.4h8.311V392.7s8.607-8.618,13.237-8.619l1.8.157v-8.282h-2.087C295.882,376.194,292.665,378.027,288.847,383.662Z" transform="translate(-93.162 -351.42)" fill="#000406"/>
          <path id="Path_609" data-name="Path 609" d="M356.5,399.569l-.211.289h0l.165-.312,0,0c-5.178-2.673-8.844-4.925-8.844-9.586,0-4.035,2.857-6.748,7.11-6.748a7.233,7.233,0,0,1,5.547,2.287,10.1,10.1,0,0,1,2.116,7.8l-.04.389h7.641l.015-.337c.249-5.185-1.252-9.76-4.226-12.882a14.717,14.717,0,0,0-10.975-4.378c-8.9,0-15.122,5.894-15.122,14.336,0,9.2,7.372,13.143,12.754,16.023,5.359,2.909,10.421,5.657,10.421,11.395a8.083,8.083,0,0,1-8.367,8.348c-5.281,0-9.077-4.438-9.233-10.792l-.008-.344h-7.7l.008.36c.249,11.165,6.737,18.1,16.931,18.1,9.749,0,16.3-6.455,16.3-16.065C370.785,407.132,363.2,403.114,356.5,399.569Z" transform="translate(-62.474 -351.346)" fill="#000406"/>
          <path id="Path_610" data-name="Path 610" d="M337.957,415c-.166,3.914-1.232,7.143-3.046,9.033a6.491,6.491,0,0,1-4.865,2.03c-6.306,0-9.639-7.347-9.639-21.247,0-13.835,3.451-21.453,9.715-21.453a6.083,6.083,0,0,1,4.541,1.885c1.7,1.755,2.714,4.747,2.9,8.382h7.755c-.091-5.754-1.639-10.364-4.547-13.392a13.716,13.716,0,0,0-10.332-4.024c-11.75,0-18.222,10.129-18.222,28.524s6.279,28.524,17.676,28.524c9.179,0,14.921-6.78,15.645-18.261Z" transform="translate(-76.098 -351.283)" fill="#000406"/>
        </g>
        <path id="Path_611" data-name="Path 611" d="M368.386,410.816a2.165,2.165,0,0,0,.257-1.07,1.8,1.8,0,0,0-.531-1.378,2.187,2.187,0,0,0-1.55-.5H363.6V413.8h1.584v-1.979H366.4l1.076,1.979h1.373L367.58,411.5A1.525,1.525,0,0,0,368.386,410.816Zm-1.266-.34a1.759,1.759,0,0,1-.844.161h-1.087v-1.582h1.087a1.513,1.513,0,0,1,.844.194.711.711,0,0,1,.289.641A.605.605,0,0,1,367.12,410.476Z" transform="translate(-48.462 -334.259)" fill="#000406"/>
        <path id="Path_612" data-name="Path 612" d="M371.892,409.491a4.947,4.947,0,0,0-1.116-1.648,5.06,5.06,0,0,0-1.669-1.073,5.785,5.785,0,0,0-4.147,0,5.074,5.074,0,0,0-1.672,1.073,4.962,4.962,0,0,0-1.113,1.648,5.442,5.442,0,0,0-.4,2.138,5.5,5.5,0,0,0,.4,2.144,5.045,5.045,0,0,0,1.113,1.672,4.926,4.926,0,0,0,1.672,1.081,5.785,5.785,0,0,0,4.147,0,4.912,4.912,0,0,0,1.669-1.081,5.03,5.03,0,0,0,1.116-1.672,5.556,5.556,0,0,0,.4-2.144A5.5,5.5,0,0,0,371.892,409.491Zm-1.015,3.866A4.149,4.149,0,0,1,370,414.7a3.756,3.756,0,0,1-1.313.869,4.441,4.441,0,0,1-3.24,0,3.72,3.72,0,0,1-1.315-.869,4.127,4.127,0,0,1-.881-1.347,4.721,4.721,0,0,1,0-3.44,4.127,4.127,0,0,1,.881-1.347,3.76,3.76,0,0,1,1.315-.869,4.44,4.44,0,0,1,3.24,0,3.8,3.8,0,0,1,1.313.869,4.149,4.149,0,0,1,.88,1.347,4.7,4.7,0,0,1,0,3.44Z" transform="translate(-49.447 -335.057)" fill="#000406"/>
      </g>
      <path id="Path_613" data-name="Path 613" d="M416.752,365.147,409.6,390.475h-.091l-7.678-25.328H385.043l-5.813,10.334-6.156-10.334h-8.63l10.038,16.239-11.015,18.191h8.173l7.026-11.974,7.275,11.974H398.9V375.833h.089q.272,1.49.509,2.553c.158.707.312,1.364.463,1.965s.312,1.175.486,1.718.351,1.136.53,1.784l5.084,15.725h6.845l5.021-15.716q.554-1.9,1.029-3.66a39.2,39.2,0,0,0,.83-3.974h.088v23.349H427v-34.43Zm-33.915,16.222,8.939-14.836v29.383Z" transform="translate(-48.535 -357.232)" fill="url(#linear-gradient)"/>
    </g>
  </g>
</svg>
